# xmcd
#
# Track frame offsets: 
#        150
#        15521
#        31268
#        49650
#        65480
#        87466
#        102674
#        123608
#        139850
#        156515
#        172758
#        188346
#
# Disc length: 2793 seconds
#
# Revision: 1
# Processed by: cddbd v1.5.2PL0 Copyright (c) Steve Scherf et al.
# Submitted via: ExactAudioCopy v1.3
#
DISCID=9c0ae70c
DTITLE=Carolina Story - Lay Your Head Down
DYEAR=2018
DGENRE=Rock
TTITLE0=Lay Your Head Down
TTITLE1=Gold
TTITLE2=We Were Young Once Too
TTITLE3=You Who Makes the Storm Break
TTITLE4=Set in Stone
TTITLE5=Rich Man
TTITLE6=Lonely without You
TTITLE7=Your Children's Children
TTITLE8=My Feet Keep Moving Still
TTITLE9=When I Was Just a Boy
TTITLE10=When Will I See You Again?
TTITLE11=Let Me Rock, Let Me Roll
EXTD=YEAR: 2018
EXTT0=
EXTT1=
EXTT2=
EXTT3=
EXTT4=
EXTT5=
EXTT6=
EXTT7=
EXTT8=
EXTT9=
EXTT10=
EXTT11=
PLAYORDER=
